<svg width="80" height="20" viewBox="0 0 80 20" fill="none" xmlns="http://www.w3.org/2000/svg">
<g clip-path="url(#clip0_469_47)">
<path d="M0 0H20V20H0V0Z" fill="#303540"/>
<path d="M7.96415 7.96415C6.857 9.07129 6.857 10.8927 7.96415 11.9999C9.07129 13.107 10.8927 13.107 11.9999 11.9999C13.107 10.8927 13.107 9.07129 11.9999 7.96415C10.8927 6.857 9.107 6.857 7.96415 7.96415Z" fill="#FEFEFE"/>
<path d="M14.6428 5.57133V9.96419C14.6428 12.5713 12.5714 14.6428 9.96426 14.6428H5.5714C8.10712 17.0713 12.0714 17.0356 14.5357 14.5356C17 12.0713 17.0357 8.10704 14.6428 5.57133ZM5.35712 10.0356C5.35712 7.42847 7.42855 5.35704 10.0357 5.35704H14.4285C11.8928 2.92847 7.92855 2.96419 5.46426 5.46419C2.99998 7.96419 2.96426 11.9285 5.35712 14.4285V10.0356Z" fill="white"/>
<path d="M20 0H80V20H20V0Z" fill="#2E6BE5"/>
<path d="M30.1069 10.8214C28.8212 10.4643 27.8569 9.42857 27.8569 7.92857C27.8569 6.07143 29.3926 5 31.0355 5H38.8569V7.25H34.2855V9H37.8212V11.1786H34.2855V14.2857H31.8569V7.17857H30.9998C30.6069 7.17857 30.1426 7.42857 30.1426 7.92857C30.1426 8.32143 30.3926 8.57143 30.7141 8.71429L30.1069 10.8214ZM39.9998 14.2857V5H42.4998V14.2857H39.9998ZM46.8212 7.28571C48.6784 7.28571 49.9998 8.17857 49.9998 10.0357V14.2857H47.8926V13.5714C47.4998 14.2857 46.6069 14.5 45.7498 14.5C44.2498 14.5 43.3926 13.4286 43.3926 12.2143C43.3926 11.1786 44.2141 9.92857 46.2498 9.92857H47.7141V9.82143C47.7141 9.03571 47.4284 8.75 46.7855 8.75C46.2141 8.75 45.8569 9.03571 45.8212 9.57143H43.6784C43.7855 8.25 44.8569 7.28571 46.8212 7.28571ZM47.7498 11.6786V11.2857H46.7141C46.1069 11.2857 45.6426 11.6071 45.6426 12.0714C45.6426 12.5714 45.9998 12.8214 46.6069 12.8214C47.3212 12.8214 47.7498 12.3214 47.7498 11.6786ZM57.2855 8.5C57.7498 7.64286 58.4284 7.32143 59.3212 7.32143C61.0355 7.32143 61.7855 8.39286 61.7855 10.1071V14.2857H59.4641V10.5714C59.4641 9.78572 59.3212 9.32143 58.6426 9.32143C57.8926 9.32143 57.6784 9.89286 57.6784 10.6429V14.2857H55.3569V10.5714C55.3569 9.78572 55.1784 9.32143 54.4641 9.32143C53.7141 9.32143 53.4641 9.96429 53.4641 10.75V14.3214H51.0712V7.5H53.3212V8.5C53.7855 7.53571 54.6069 7.28571 55.3569 7.28571C56.2498 7.28571 56.8926 7.64286 57.2855 8.5ZM65.1426 8.42857C65.6069 7.57143 66.4641 7.28571 67.2855 7.28571C69.0712 7.28571 70.1426 8.78571 70.1426 10.8929C70.1426 13.0357 69.0355 14.5 67.2855 14.5C66.4641 14.5 65.6426 14.25 65.2141 13.5714V16.7857H62.8569V7.5H65.1426V8.42857ZM66.4284 12.6429C67.4284 12.6429 67.8212 11.8214 67.8212 10.8929C67.8212 9.96429 67.4641 9.17857 66.4284 9.17857C65.4641 9.17857 65.0355 9.96429 65.0355 10.8929C65.0712 11.8214 65.4641 12.6429 66.4284 12.6429Z" fill="white"/>
</g>
<defs>
<clipPath id="clip0_469_47">
<rect width="80" height="20" fill="white"/>
</clipPath>
</defs>
</svg>
