<svg width="70" height="14" viewBox="0 0 70 14" fill="none" xmlns="http://www.w3.org/2000/svg">
<path d="M7 0L9.05725 4.16844L13.6574 4.83688L10.3287 8.08156L11.1145 12.6631L7 10.5L2.8855 12.6631L3.6713 8.08156L0.342604 4.83688L4.94275 4.16844L7 0Z" fill="#FFCC00"/>
<path d="M21 0L23.0572 4.16844L27.6574 4.83688L24.3287 8.08156L25.1145 12.6631L21 10.5L16.8855 12.6631L17.6713 8.08156L14.3426 4.83688L18.9428 4.16844L21 0Z" fill="#FFCC00"/>
<path d="M35 0L37.0572 4.16844L41.6574 4.83688L38.3287 8.08156L39.1145 12.6631L35 10.5L30.8855 12.6631L31.6713 8.08156L28.3426 4.83688L32.9428 4.16844L35 0Z" fill="#FFCC00"/>
<path d="M49 0L51.0572 4.16844L55.6574 4.83688L52.3287 8.08156L53.1145 12.6631L49 10.5L44.8855 12.6631L45.6713 8.08156L42.3426 4.83688L46.9428 4.16844L49 0Z" fill="#FFCC00"/>
<path d="M63 0L65.0572 4.16844L69.6574 4.83688L66.3287 8.08156L67.1145 12.6631L63 10.5L58.8855 12.6631L59.6713 8.08156L56.3426 4.83688L60.9428 4.16844L63 0Z" fill="#EDEDED"/>
</svg>
