<svg width="105" height="20" viewBox="0 0 105 20" fill="none" xmlns="http://www.w3.org/2000/svg">
<g clip-path="url(#clip0_452_355)">
<path d="M3.87988 14.8132C4.45964 15.5504 4.98729 16.327 5.45902 17.1373C5.86179 17.8993 6.02968 18.4161 6.32406 19.3343C6.50456 19.8415 6.66772 19.9929 7.01846 19.9929C7.40073 19.9929 7.57414 19.7354 7.70813 19.337C7.98636 18.4699 8.20469 17.8081 8.54913 17.1829C9.225 15.9756 10.0648 14.9029 10.8901 13.8718C11.1135 13.58 12.5579 11.8801 13.2081 10.5387C13.2081 10.5387 14.0074 9.06529 14.0074 7.00749C14.0074 5.0826 13.2192 3.74756 13.2192 3.74756L10.95 4.35393L9.57181 7.97563L9.23092 8.47504L9.16274 8.56549L9.07209 8.67874L8.91288 8.85963L8.68549 9.08653L7.45827 10.0842L4.39024 11.8518L3.87988 14.8132Z" fill="#34A853"/>
<path d="M0.713379 10.2911C1.46216 11.9978 2.90613 13.498 3.88309 14.8145L9.07215 8.68123C9.07215 8.68123 8.3411 9.63522 7.01497 9.63522C5.5379 9.63522 4.34458 8.45827 4.34458 6.97419C4.34458 5.9565 4.95819 5.25732 4.95819 5.25732L1.43576 6.19913L0.713379 10.2911Z" fill="#FBBC04"/>
<path d="M9.12989 0.311523C10.8533 0.865987 12.3284 2.02997 13.2206 3.74644L9.07353 8.67763C9.07353 8.67763 9.68714 7.96587 9.68714 6.95446C9.68714 5.43579 8.40554 4.3013 7.02108 4.3013C5.7119 4.3013 4.95996 5.25372 4.95996 5.25372V2.14715L9.12989 0.311523Z" fill="#4285F4"/>
<path d="M1.66406 2.49039C2.69344 1.26153 4.50471 -0.00390625 7.0017 -0.00390625C8.21315 -0.00390625 9.12587 0.313435 9.12587 0.313435L4.95634 5.25642H2.0022L1.66406 2.49039Z" fill="#1A73E8"/>
<path d="M0.713294 10.2909C0.713294 10.2909 0.0244141 8.94482 0.0244141 6.99476C0.0244141 5.15166 0.742457 3.54057 1.66385 2.49023L4.95849 5.25665L0.713294 10.2909Z" fill="#EA4335"/>
<path d="M71.6032 16.2152V5.70519H72.9565L76.6196 12.1051H76.6787L80.3419 5.70519H81.6952V16.2152H80.3419V9.97652L80.401 8.21482H80.3419L77.0472 13.9836H76.2531L72.9585 8.21482H72.8994L72.9585 9.97652V16.2148L71.6032 16.2152ZM85.6519 16.4354C84.8874 16.4354 84.247 16.2152 83.7327 15.7748C83.2184 15.3344 82.9602 14.7524 82.9602 14.028C82.9602 13.2416 83.2637 12.6313 83.8722 12.1857C84.4807 11.7402 85.2302 11.518 86.1185 11.518C86.913 11.518 87.5649 11.6647 88.0752 11.9584V11.7528C88.0752 11.2243 87.8939 10.8011 87.5314 10.4834C87.1688 10.1657 86.7223 10.0064 86.1922 10.0064C85.8001 10.0064 85.445 10.0992 85.1262 10.2817C84.8074 10.4641 84.5894 10.7221 84.472 11.0446L83.2361 10.5164C83.4028 10.0858 83.7315 9.69064 84.2214 9.32021C84.7112 8.94978 85.3587 8.76968 86.1631 8.76968C87.0852 8.76968 87.8498 9.03905 88.4579 9.57699C89.066 10.1149 89.3698 10.8739 89.3698 11.8527V16.2015H88.0756V15.2026H88.0165C87.4766 16.0284 86.6872 16.4354 85.6519 16.4354ZM85.8726 15.2026C86.4314 15.2026 86.9386 14.9942 87.395 14.579C87.8514 14.1637 88.0792 13.6745 88.0792 13.1043C87.6969 12.7909 87.1231 12.6344 86.3581 12.6344C85.7008 12.6344 85.2054 12.776 84.8724 13.0603C84.5394 13.3446 84.3719 13.6769 84.3719 14.0583C84.3719 14.4107 84.524 14.6895 84.8279 14.8951C85.1317 15.1008 85.4801 15.2034 85.8722 15.2034L85.8726 15.2026ZM94.441 16.4354C93.8921 16.4354 93.3991 16.3175 92.9632 16.0831C92.5273 15.8487 92.2006 15.5546 91.9858 15.2022H91.9267L91.9858 16.2003V19.3709H90.6325V9.00838H91.9275V10.0064H91.9866C92.2022 9.65407 92.5281 9.36071 92.964 9.12556C93.3998 8.8904 93.8933 8.77322 94.4418 8.77322C95.3735 8.77322 96.1778 9.14011 96.8545 9.87428C97.5312 10.6085 97.8697 11.518 97.8697 12.6045C97.8697 13.691 97.5308 14.601 96.8545 15.3348C96.1782 16.0685 95.3735 16.4358 94.4418 16.4358L94.441 16.4354ZM94.2204 15.2026C94.8482 15.2026 95.3869 14.9651 95.8385 14.4948C96.2901 14.0245 96.5152 13.3914 96.5152 12.6085C96.5152 11.8255 96.2897 11.1928 95.8385 10.7221C95.3873 10.2514 94.8478 10.0143 94.2204 10.0143C93.5831 10.0143 93.0408 10.249 92.5947 10.719C92.1486 11.1889 91.9259 11.82 91.9259 12.6124C91.9259 13.4048 92.149 14.0359 92.5947 14.5058C93.0404 14.9757 93.5827 15.2105 94.2204 15.2105V15.2026ZM101.466 16.4354C100.662 16.4354 99.9974 16.2396 99.4725 15.8483C98.9475 15.4571 98.566 14.9675 98.3178 14.3804L99.5237 13.881C99.906 14.7854 100.559 15.2309 101.481 15.2309C101.902 15.2309 102.248 15.1381 102.518 14.9557C102.788 14.7732 102.923 14.5251 102.923 14.2219C102.923 13.7524 102.594 13.4339 101.937 13.2679L100.481 12.916C100.019 12.7988 99.5832 12.5758 99.1714 12.2482C98.7596 11.9207 98.5534 11.4775 98.5534 10.9203C98.5534 10.2844 98.8352 9.76811 99.3992 9.37094C99.9631 8.97377 100.633 8.77637 101.407 8.77637C102.044 8.77637 102.613 8.92068 103.114 9.20892C103.604 9.48655 103.983 9.92466 104.187 10.4492L103.01 10.9337C102.746 10.2978 102.196 9.97967 101.363 9.97967C100.961 9.97967 100.622 10.063 100.348 10.229C100.074 10.3949 99.9363 10.6206 99.9363 10.9046C99.9363 11.3155 100.252 11.5943 100.892 11.7414L102.319 12.0788C102.996 12.2353 103.496 12.5046 103.819 12.8861C104.143 13.2675 104.305 13.6985 104.305 14.1783C104.305 14.8239 104.04 15.358 103.51 15.7929C102.981 16.2278 102.299 16.4386 101.461 16.4386L101.466 16.4354ZM31.4984 9.949H25.9472V11.5927H29.8881C29.6938 13.8971 27.7718 14.8802 25.9578 14.8802C25.383 14.8828 24.8134 14.7711 24.2823 14.5516C23.7513 14.3322 23.2693 14.0093 22.8647 13.6019C22.46 13.1945 22.1408 12.7108 21.9256 12.1789C21.7104 11.6471 21.6036 11.0778 21.6113 10.5042C21.6113 8.01624 23.5416 6.1 25.9621 6.1C27.8302 6.1 28.9297 7.28836 28.9297 7.28836L30.0832 6.09685C30.0832 6.09685 28.6026 4.45312 25.903 4.45312C22.4653 4.45312 19.8052 7.34852 19.8052 10.4759C19.8052 13.54 22.3077 16.529 25.9909 16.529C29.2304 16.529 31.6028 14.3143 31.6028 11.0394C31.6028 10.3489 31.5023 9.94939 31.5023 9.94939L31.4984 9.949Z" fill="#767676"/>
<path d="M36.0557 8.78008C33.7779 8.78008 32.1455 10.5567 32.1455 12.6291C32.1455 14.7321 33.729 16.5418 36.0865 16.5418C38.2173 16.5418 39.9628 14.9169 39.9628 12.6739C39.9628 10.1033 37.932 8.7793 36.0597 8.7793L36.0557 8.78008ZM36.0782 10.3047C37.1986 10.3047 38.2599 11.2083 38.2599 12.6641C38.2599 14.0892 37.2026 15.0196 36.0727 15.0196C34.8313 15.0196 33.8519 14.0274 33.8519 12.6535C33.8519 11.3094 34.8195 10.3051 36.0778 10.3051L36.0782 10.3047Z" fill="#767676"/>
<path d="M44.5191 8.78008C42.2412 8.78008 40.6089 10.5567 40.6089 12.6291C40.6089 14.7321 42.1924 16.5418 44.5498 16.5418C46.6807 16.5418 48.4262 14.9169 48.4262 12.6739C48.4262 10.1033 46.3954 8.7793 44.523 8.7793L44.5191 8.78008ZM44.5416 10.3047C45.662 10.3047 46.7233 11.2083 46.7233 12.6641C46.7233 14.0892 45.6659 15.0196 44.5361 15.0196C43.2947 15.0196 42.3153 14.0274 42.3153 12.6535C42.3153 11.3094 43.2828 10.3051 44.5412 10.3051L44.5416 10.3047Z" fill="#767676"/>
<path d="M52.8526 8.78012C50.7619 8.78012 49.1182 10.6075 49.1182 12.6582C49.1182 14.994 51.0232 16.5434 52.816 16.5434C53.9246 16.5434 54.5137 16.1042 54.9496 15.5996V16.3649C54.9496 17.7038 54.1346 18.506 52.9003 18.506C51.7121 18.506 51.1166 17.6244 50.9093 17.1242L49.4145 17.7479C49.945 18.8666 51.0122 20.0338 52.9133 20.0338C54.9922 20.0338 56.5768 18.7274 56.5768 15.9834V9.01135H54.9461V9.66884C54.4448 9.1301 53.759 8.77816 52.8495 8.77816L52.8526 8.78012ZM53.0039 10.3019C54.0294 10.3019 55.0816 11.1749 55.0816 12.6665C55.0816 14.1828 54.0314 15.018 52.9811 15.018C51.8666 15.018 50.8293 14.1152 50.8293 12.6806C50.8293 11.1863 51.906 10.3016 53.0039 10.3016V10.3019ZM63.855 8.78012C61.8829 8.78012 60.2265 10.3452 60.2265 12.6563C60.2265 15.1006 62.0721 16.5509 64.0442 16.5509C65.6899 16.5509 66.7004 15.6523 67.3025 14.8474L65.9626 13.9547C65.6138 14.495 65.0302 15.0235 64.0572 15.0235C62.9635 15.0235 62.4611 14.4258 62.1497 13.847L67.3652 11.6842L67.0945 11.055C66.59 9.81551 65.4148 8.78052 63.8629 8.78052L63.855 8.78012ZM63.9228 10.2728C64.6337 10.2728 65.1445 10.6504 65.3624 11.1018L61.8794 12.5544C61.7296 11.4298 62.7968 10.2728 63.9232 10.2728H63.9228ZM57.7355 16.3196H59.4482V4.87646H57.7355V16.3196Z" fill="#767676"/>
</g>
<defs>
<clipPath id="clip0_452_355">
<rect width="104.286" height="20" fill="white"/>
</clipPath>
</defs>
</svg>
